<svg id="Símbolo_9_1" data-name="Símbolo 9 – 1" xmlns="http://www.w3.org/2000/svg" width="43.377" height="47" viewBox="0 0 43.377 47">
  <path id="Trazado_296" data-name="Trazado 296" d="M22.524,0H1.789A1.724,1.724,0,0,0,0,1.626V45.374A1.724,1.724,0,0,0,1.789,47H22.524a1.724,1.724,0,0,0,1.789-1.626V1.626A1.724,1.724,0,0,0,22.524,0ZM5.611,2.765a.894.894,0,1,1-.894.894A.9.9,0,0,1,5.611,2.765Zm3.09.488h9.758c.163,0,.244.163.244.407s-.081.407-.244.407H8.7c-.081,0-.163-.163-.163-.407S8.619,3.253,8.7,3.253Zm3.334,41.471a1.708,1.708,0,1,1,1.708-1.708A1.718,1.718,0,0,1,12.035,44.723Zm8.945-5.773H3.171V7.562H20.979Z" transform="translate(9.687)" fill="#090"/>
  <rect id="Rectángulo_2457" data-name="Rectángulo 2457" width="43.377" height="23" transform="translate(0 0)" fill="none"/>
</svg>
