<svg xmlns="http://www.w3.org/2000/svg" width="22.9" height="29.598" viewBox="0 0 22.9 29.598">
  <g id="Grupo_3247" data-name="Grupo 3247" transform="translate(0.5 0.5)">
    <path id="Unión_6" data-name="Unión 6" d="M-1690.952-487.4v-2.8h15.149v2.8Zm.925-4.967a.972.972,0,0,1-.974-.965v-21.7a.972.972,0,0,1,.974-.964h13.395a.972.972,0,0,1,.975.964v1.255l.477.439.134-.15,4.428,3.975,1.514,13.162-.06.482c-.053,1.23-1.616,1.984-2.742,1.984a2.173,2.173,0,0,1-2.254-1.96l-.1-.57-.441-7.089a1.508,1.508,0,0,0-.958-1.289v11.464a.972.972,0,0,1-.975.965Zm14.369-14.2a3.312,3.312,0,0,1,2.644,2.986l.049.318.387,6.7.1.632c0,.171.234.362.57.362a1.59,1.59,0,0,0,1.072-.44l.026-.264-.024-.118-1.388-12.294-.038-.034-1.012.392-2.387-2.813Zm-12.421.121h9.5v-6.655h-9.5Z" transform="translate(1691 516)" fill="#090" stroke="rgba(0,0,0,0)" stroke-width="1"/>
  </g>
</svg>
