<svg xmlns="http://www.w3.org/2000/svg" width="38.666" height="46" viewBox="0 0 38.666 46">
  <g id="Grupo_3294" data-name="Grupo 3294" transform="translate(-764.503 -813.333)">
    <path id="Trazado_3748" data-name="Trazado 3748" d="M783.836,821.028a19.379,19.379,0,1,0,19.333,19.379A19.377,19.377,0,0,0,783.836,821.028Zm0,33.981a14.6,14.6,0,1,1,14.567-14.6A14.6,14.6,0,0,1,783.836,855.009Z" transform="translate(0 -0.454)" fill="#090"/>
    <path id="Trazado_3749" data-name="Trazado 3749" d="M785.9,838.813l-.414-9.031a.9.9,0,0,0-1.793,0l-.438,9.045a3.14,3.14,0,1,0,2.644-.013Z" transform="translate(-0.755 -0.629)" fill="#090"/>
    <rect id="Rect치ngulo_3193" data-name="Rect치ngulo 3193" width="7.151" height="5.026" transform="translate(780.26 813.333)" fill="#090"/>
    <rect id="Rect치ngulo_3194" data-name="Rect치ngulo 3194" width="3.643" height="4.821" transform="translate(794.112 820.695) rotate(-56.639)" fill="#090"/>
  </g>
</svg>
